<?xml version="1.0" standalone="no"?>
<!DOCTYPE svg PUBLIC "-//W3C//DTD SVG 20010904//EN"
 "http://www.w3.org/TR/2001/REC-SVG-20010904/DTD/svg10.dtd">
<svg version="1.0" xmlns="http://www.w3.org/2000/svg"
 width="7746.000000pt" height="3129.000000pt" viewBox="0 0 7746.000000 3129.000000"
 preserveAspectRatio="xMidYMid meet">

<g transform="translate(0.000000,3129.000000) scale(0.100000,-0.100000)"
fill="#ffffff" stroke="none">
<path d="M64540 25444 c-30 -2 -127 -8 -215 -14 -1539 -100 -3052 -664 -4300
-1602 -1039 -782 -1879 -1801 -2441 -2963 -435 -900 -684 -1810 -780 -2845
-21 -237 -30 -867 -15 -1125 67 -1137 343 -2183 840 -3175 762 -1520 1959
-2747 3468 -3554 943 -503 1980 -808 3103 -912 236 -22 907 -30 1167 -15 1798
107 3583 742 4937 1755 360 269 581 470 1022 928 l334 347 0 3170 0 3171
-3545 0 -3545 0 0 -1930 0 -1930 1615 0 1615 0 0 -398 0 -399 -112 -67 c-153
-91 -520 -271 -704 -345 -885 -354 -1844 -499 -2629 -396 -568 75 -1106 255
-1582 528 -1590 916 -2407 2710 -2048 4502 320 1599 1558 2895 3140 3285 352
87 649 123 1020 123 372 0 672 -36 1014 -122 817 -205 1529 -631 2122 -1269
l96 -104 1462 1258 c803 692 1461 1261 1461 1265 0 28 -466 510 -695 718
-1164 1061 -2622 1766 -4167 2015 -449 73 -730 96 -1213 100 -203 2 -395 2
-425 0z"/>
<path d="M14885 24780 c-221 -28 -439 -110 -635 -239 -113 -74 -309 -269 -383
-382 -119 -181 -193 -366 -229 -574 -17 -101 -19 -146 -15 -285 8 -238 50
-405 151 -604 72 -142 151 -250 267 -365 161 -162 344 -277 549 -345 184 -61
251 -71 475 -71 181 1 211 3 313 28 555 130 974 559 1094 1120 31 149 31 418
-1 567 -48 223 -131 409 -261 582 -215 287 -510 473 -872 549 -107 23 -345 33
-453 19z"/>
<path d="M18960 24776 c-802 -142 -1326 -876 -1191 -1668 52 -302 182 -551
405 -773 214 -213 431 -331 733 -397 142 -31 415 -31 559 0 227 49 413 132
585 261 266 200 450 472 529 786 127 497 -2 995 -349 1358 -203 212 -439 348
-717 413 -91 21 -140 26 -294 29 -125 3 -209 0 -260 -9z"/>
<path d="M23057 24770 c-521 -95 -948 -460 -1111 -951 -61 -183 -71 -251 -71
-474 1 -181 3 -211 28 -313 66 -284 201 -518 414 -723 200 -191 428 -310 713
-370 138 -29 389 -32 525 -6 455 88 824 359 1028 754 298 577 178 1278 -295
1718 -191 177 -433 302 -698 360 -122 27 -400 29 -533 5z"/>
<path d="M26350 17340 l0 -7450 6315 0 6315 0 -2 1868 -3 1867 -3842 3 -3843
2 0 925 0 925 3485 0 3485 0 0 1870 0 1870 -3485 0 -3485 0 0 915 0 915 3835
0 3835 0 0 1870 0 1870 -6305 0 -6305 0 0 -7450z"/>
<path d="M40090 17355 l0 -7415 2280 0 2280 0 2 3255 3 3254 1594 -2570 c877
-1413 1601 -2578 1608 -2589 14 -20 31 -20 1107 -20 1028 0 1094 1 1108 18 8
9 735 1229 1614 2711 l1599 2694 2 -114 c1 -63 9 -1257 17 -2654 9 -1397 18
-2865 22 -3263 l7 -722 2274 2 2274 3 -1 754 c0 699 -2 755 -18 776 -9 12 -66
80 -125 151 -518 615 -977 1375 -1304 2154 -595 1420 -819 2983 -657 4575 117
1157 459 2279 1002 3290 251 468 606 993 951 1405 l121 145 0 210 c0 116 -3
470 -7 788 l-6 577 -2052 0 -2052 0 -2348 -3945 c-1292 -2170 -2352 -3944
-2357 -3943 -4 2 -1092 1776 -2416 3943 l-2408 3940 -2057 3 -2057 2 0 -7415z"/>
<path d="M10825 24473 c-383 -45 -711 -268 -882 -599 -160 -309 -172 -654 -35
-972 145 -336 440 -575 807 -653 64 -14 130 -20 225 -20 213 0 398 50 569 151
519 308 706 951 433 1485 -170 331 -492 557 -862 605 -72 9 -193 11 -255 3z"/>
<path d="M14927 20559 c-591 -65 -1068 -513 -1174 -1103 -34 -190 -17 -436 43
-627 37 -120 112 -270 185 -373 480 -673 1448 -754 2033 -170 366 366 487 900
315 1391 -155 444 -560 787 -1022 867 -114 20 -276 26 -380 15z"/>
<path d="M18960 20555 c-430 -73 -785 -336 -979 -723 -97 -193 -135 -361 -136
-592 0 -243 35 -393 140 -605 181 -366 531 -629 945 -712 130 -26 384 -23 517
5 271 59 474 171 673 371 166 166 257 313 325 523 53 164 68 274 62 463 -4
134 -10 179 -35 275 -135 523 -547 903 -1076 995 -107 18 -329 18 -436 0z"/>
<path d="M10725 20340 c-223 -48 -391 -138 -557 -298 -172 -166 -286 -381
-328 -620 -13 -72 -15 -262 -5 -337 51 -364 285 -691 612 -854 536 -268 1175
-76 1481 444 189 322 199 738 26 1075 -148 288 -409 495 -732 582 -115 30
-374 35 -497 8z"/>
<path d="M6653 20236 c-293 -56 -542 -229 -697 -485 -110 -180 -162 -416 -138
-623 15 -129 33 -198 81 -308 120 -278 368 -492 666 -576 113 -32 306 -43 422
-24 227 36 418 136 581 302 81 83 123 142 178 250 294 581 -27 1281 -664 1450
-100 26 -326 33 -429 14z"/>
<path d="M14930 16345 c-8 -2 -49 -9 -90 -15 -394 -64 -752 -349 -914 -728
-111 -260 -127 -593 -40 -860 143 -438 512 -758 964 -836 392 -67 797 62 1079
343 330 331 444 815 297 1256 -67 199 -162 350 -314 496 -175 170 -362 270
-607 325 -63 14 -338 28 -375 19z"/>
<path d="M19005 16339 c-322 -47 -617 -220 -809 -476 -286 -381 -330 -884
-113 -1307 273 -533 893 -791 1469 -610 102 32 273 118 353 179 210 158 376
392 448 635 42 138 51 206 50 365 0 160 -14 247 -59 385 -142 431 -530 757
-981 825 -106 16 -262 18 -358 4z"/>
<path d="M23141 16340 c-273 -35 -520 -156 -717 -354 -179 -179 -286 -376
-340 -626 -25 -117 -26 -363 -1 -477 81 -379 305 -679 637 -852 476 -249 1059
-160 1439 220 170 170 284 383 337 629 22 102 25 349 5 450 -97 509 -472 891
-973 994 -97 20 -290 28 -387 16z"/>
<path d="M10820 16238 c-325 -33 -633 -220 -814 -491 -384 -578 -171 -1349
455 -1646 658 -313 1433 77 1585 799 21 101 24 313 5 410 -97 510 -498 880
-1007 930 -111 11 -107 11 -224 -2z"/>
<path d="M6643 16125 c-467 -85 -814 -479 -840 -956 -29 -518 344 -977 860
-1059 120 -20 320 -8 432 24 172 51 299 123 424 241 100 95 163 181 221 300
71 145 91 231 97 406 6 168 -8 258 -61 401 -89 237 -283 448 -511 558 -186 89
-422 121 -622 85z"/>
<path d="M14920 12119 c-41 -5 -115 -20 -165 -34 -612 -173 -961 -819 -769
-1425 200 -636 907 -957 1522 -692 568 246 829 910 582 1484 -120 280 -377
516 -664 613 -158 53 -350 74 -506 54z"/>
<path d="M19040 12120 c-175 -22 -402 -114 -541 -219 -536 -407 -601 -1188
-138 -1676 285 -299 707 -419 1104 -313 392 105 695 409 802 805 25 89 27 114
27 283 0 169 -2 194 -27 283 -114 422 -455 743 -877 823 -98 19 -257 25 -350
14z"/>
<path d="M23185 12124 c-501 -54 -897 -412 -1001 -904 -24 -115 -24 -325 0
-440 85 -403 371 -725 754 -849 123 -40 219 -55 357 -54 235 0 425 59 624 190
249 165 425 436 482 743 16 87 16 287 0 380 -80 453 -424 813 -872 911 -86 18
-269 31 -344 23z"/>
<path d="M14860 7885 c-210 -42 -391 -144 -545 -306 -117 -124 -188 -248 -242
-424 -25 -84 -27 -102 -27 -270 0 -153 3 -192 21 -257 52 -186 136 -331 268
-464 313 -315 781 -392 1181 -194 500 248 706 861 459 1362 -56 112 -104 178
-205 278 -144 143 -312 233 -512 274 -94 19 -304 20 -398 1z"/>
<path d="M18980 7886 c-449 -95 -773 -453 -820 -906 -62 -613 443 -1146 1060
-1117 263 13 494 114 678 299 307 306 386 768 199 1161 -126 264 -353 456
-647 544 -72 21 -109 26 -245 29 -109 2 -181 -1 -225 -10z"/>
</g>
</svg>
